<?xml version="1.0" encoding="UTF-8" standalone="no"?>
<!DOCTYPE svg PUBLIC "-//W3C//DTD SVG 1.1//EN" "http://www.w3.org/Graphics/SVG/1.1/DTD/svg11.dtd">
<svg width="100%" height="100%" viewBox="0 0 200 200" version="1.1" xmlns="http://www.w3.org/2000/svg" xmlns:xlink="http://www.w3.org/1999/xlink" xml:space="preserve" xmlns:serif="http://www.serif.com/" style="fill-rule:evenodd;clip-rule:evenodd;stroke-linecap:round;stroke-linejoin:round;">
    <rect x="0" y="0" width="200" height="200" style="fill:rgb(1,182,163);"/>
    <rect id="Artboard1" x="0" y="0" width="200" height="200" style="fill:none;"/>
    <g id="Artboard11" serif:id="Artboard1">
        <g transform="matrix(6.6,0,0,6.6,20.8,20.8)">
            <path d="M15,14C15.2,13 15.7,12.3 16.5,11.5C17.5,10.6 18,9.3 18,8C18,4.708 15.292,2 12,2C8.708,2 6,4.708 6,8C6,9 6.2,10.2 7.5,11.5C8.2,12.2 8.8,13 9,14" style="fill:none;fill-rule:nonzero;stroke:white;stroke-width:2px;"/>
        </g>
        <g transform="matrix(6.6,0,0,6.6,20.8,20.8)">
            <path d="M9,18L15,18" style="fill:none;fill-rule:nonzero;stroke:white;stroke-width:2px;"/>
        </g>
        <g transform="matrix(6.6,0,0,6.6,20.8,20.8)">
            <path d="M10,22L14,22" style="fill:none;fill-rule:nonzero;stroke:white;stroke-width:2px;"/>
        </g>
    </g>
</svg>
