<svg xmlns="http://www.w3.org/2000/svg" width="1200" height="630" viewBox="0 0 1200 630">
  <rect width="1200" height="630" fill="#1e293b"/>
  <rect x="80" y="200" width="500" height="8" rx="4" fill="#334155"/>
  <rect x="80" y="228" width="380" height="8" rx="4" fill="#334155"/>
  <rect x="80" y="256" width="430" height="8" rx="4" fill="#334155"/>
  <rect x="80" y="310" width="140" height="44" rx="8" fill="#6366f1"/>
  <rect x="700" y="120" width="420" height="390" rx="16" fill="#0f172a"/>
  <rect x="720" y="140" width="380" height="240" rx="8" fill="#1e293b"/>
  <circle cx="760" cy="180" r="24" fill="#334155"/>
  <rect x="800" y="168" width="120" height="8" rx="4" fill="#475569"/>
  <rect x="800" y="188" width="80" height="6" rx="3" fill="#334155"/>
  <rect x="740" y="230" width="340" height="6" rx="3" fill="#334155"/>
  <rect x="740" y="248" width="280" height="6" rx="3" fill="#334155"/>
  <rect x="740" y="266" width="320" height="6" rx="3" fill="#334155"/>
  <rect x="740" y="330" width="80" height="28" rx="6" fill="#6366f1"/>
  <rect x="836" y="330" width="80" height="28" rx="6" fill="#1e293b" stroke="#475569" stroke-width="1"/>
</svg>
