<svg xmlns="http://www.w3.org/2000/svg" width="800" height="500" viewBox="0 0 800 500">
  <rect width="800" height="500" fill="#0f172a"/>
  <!-- browser chrome -->
  <rect x="40" y="40" width="720" height="420" rx="12" fill="#1e293b"/>
  <rect x="40" y="40" width="720" height="44" rx="12" fill="#334155"/>
  <rect x="40" y="72" width="720" height="12" fill="#334155"/>
  <circle cx="72" cy="62" r="7" fill="#ef4444" opacity="0.7"/>
  <circle cx="96" cy="62" r="7" fill="#f59e0b" opacity="0.7"/>
  <circle cx="120" cy="62" r="7" fill="#22c55e" opacity="0.7"/>
  <rect x="160" y="52" width="400" height="20" rx="10" fill="#0f172a"/>
  <!-- content -->
  <rect x="60" y="104" width="680" height="120" rx="8" fill="#334155"/>
  <rect x="80" y="124" width="200" height="12" rx="6" fill="#475569"/>
  <rect x="80" y="148" width="300" height="8" rx="4" fill="#334155"/>
  <rect x="80" y="168" width="260" height="8" rx="4" fill="#334155"/>
  <rect x="80" y="192" width="90" height="24" rx="6" fill="#6366f1"/>
  <rect x="60" y="244" width="210" height="180" rx="8" fill="#334155"/>
  <rect x="290" y="244" width="210" height="180" rx="8" fill="#334155"/>
  <rect x="520" y="244" width="220" height="180" rx="8" fill="#334155"/>
</svg>
